<svg width="512" height="512" viewBox="0 0 512 512" fill="none" xmlns="http://www.w3.org/2000/svg">
<g filter="url(#filter0_d_2_47)">
<path d="M83.2 50.7H165.336C174.458 50.7 178.739 50.7096 181.731 51.329C182.443 51.4763 183.013 51.5911 183.481 51.6853C184.741 51.9391 185.257 52.0428 185.774 52.2259C186.291 52.409 186.757 52.6525 187.897 53.2482C188.319 53.4693 188.835 53.7389 189.481 54.072C190.757 54.7305 193.634 56.8387 198.651 60.7904C203.6 64.689 210.483 70.2595 219.679 77.7018C228.589 84.9124 240.566 90.7 256 90.7C266.848 90.7 365.843 90.1123 428.544 89.7334C437.568 89.6789 444.233 89.6399 449.505 90.0403C454.758 90.4392 458.479 91.2664 461.642 92.8609C467.378 95.7532 472.046 100.393 474.973 106.112C476.586 109.264 477.436 112.983 477.866 118.242C478.299 123.52 478.3 130.197 478.3 139.236V353C478.3 364.229 478.299 372.549 477.761 379.134C477.224 385.698 476.163 390.389 474.126 394.388C470.454 401.594 464.594 407.454 457.388 411.126C453.389 413.163 448.698 414.224 442.133 414.761C435.549 415.299 427.229 415.3 416 415.3H96C84.7709 415.3 76.4513 415.299 69.8665 414.761C63.3016 414.224 58.6108 413.163 54.6122 411.126C47.4056 407.454 41.5464 401.594 37.8745 394.388C35.837 390.389 34.7757 385.698 34.2393 379.133C33.7013 372.549 33.7 364.229 33.7 353V100.2C33.7 91.2111 33.7013 84.5717 34.1303 79.3209C34.5577 74.09 35.4011 70.3871 37.0025 67.2441C39.9075 61.5428 44.5428 56.9075 50.2441 54.0025C53.3871 52.4011 57.09 51.5577 62.3209 51.1303C67.5717 50.7013 74.2111 50.7 83.2 50.7Z" fill="url(#paint0_linear_2_47)" stroke="url(#paint1_linear_2_47)" stroke-width="3.4"/>
<mask id="mask0_2_47" style="mask-type:alpha" maskUnits="userSpaceOnUse" x="32" y="49" width="448" height="368">
<path d="M83.2 50.7H165.336C174.458 50.7 178.739 50.7096 181.731 51.329C182.443 51.4763 183.013 51.5911 183.481 51.6853C184.741 51.9391 185.257 52.0428 185.774 52.2259C186.291 52.409 186.757 52.6525 187.897 53.2482C188.319 53.4693 188.835 53.7389 189.481 54.072C190.757 54.7305 193.634 56.8387 198.651 60.7904C203.6 64.689 210.483 70.2595 219.679 77.7018C228.589 84.9124 240.566 90.7 256 90.7C266.848 90.7 365.843 90.1123 428.544 89.7334C437.568 89.6789 444.233 89.6399 449.505 90.0403C454.758 90.4392 458.479 91.2664 461.642 92.8609C467.378 95.7532 472.046 100.393 474.973 106.112C476.586 109.264 477.436 112.983 477.866 118.242C478.299 123.52 478.3 130.197 478.3 139.236V353C478.3 364.229 478.299 372.549 477.761 379.134C477.224 385.698 476.163 390.389 474.126 394.388C470.454 401.594 464.594 407.454 457.388 411.126C453.389 413.163 448.698 414.224 442.133 414.761C435.549 415.299 427.229 415.3 416 415.3H96C84.7709 415.3 76.4513 415.299 69.8665 414.761C63.3016 414.224 58.6108 413.163 54.6122 411.126C47.4056 407.454 41.5464 401.594 37.8745 394.388C35.837 390.389 34.7757 385.698 34.2393 379.133C33.7013 372.549 33.7 364.229 33.7 353V100.2C33.7 91.2111 33.7013 84.5717 34.1303 79.3209C34.5577 74.09 35.4011 70.3871 37.0025 67.2441C39.9075 61.5428 44.5428 56.9075 50.2441 54.0025C53.3871 52.4011 57.09 51.5577 62.3209 51.1303C67.5717 50.7013 74.2111 50.7 83.2 50.7Z" fill="white" stroke="white" stroke-width="3.4"/>
</mask>
<g mask="url(#mask0_2_47)">
<g style="mix-blend-mode:darken" filter="url(#filter1_df_2_47)">
<rect x="32" y="113" width="448" height="64" rx="20" fill="url(#paint2_linear_2_47)"/>
</g>
<path d="M93 123.5H419C430.226 123.5 438.555 123.501 445.15 124.04C451.727 124.577 456.447 125.642 460.479 127.696C467.723 131.387 473.613 137.277 477.304 144.521C479.358 148.553 480.423 153.273 480.96 159.85C481.499 166.445 481.5 174.774 481.5 186V358.6C481.5 369.546 481.499 377.665 480.974 384.093C480.45 390.504 479.412 395.1 477.413 399.025C473.818 406.081 468.081 411.818 461.025 415.413C457.1 417.412 452.504 418.45 446.093 418.974C439.665 419.499 431.546 419.5 420.6 419.5H91.4C80.4542 419.5 72.3351 419.499 65.907 418.974C59.4965 418.45 54.8999 417.412 50.9754 415.413C43.9193 411.818 38.1825 406.081 34.5873 399.025C32.5876 395.1 31.5501 390.504 31.0264 384.093C30.5012 377.665 30.5 369.546 30.5 358.6V186C30.5 174.774 30.5012 166.445 31.04 159.85C31.5774 153.273 32.6421 148.553 34.6962 144.521C38.3874 137.277 44.2771 131.387 51.5214 127.696C55.5529 125.642 60.2729 124.577 66.8502 124.04C73.4451 123.501 81.7742 123.5 93 123.5Z" fill="#8ACEF6"/>
<path d="M93 123.5H419C430.226 123.5 438.555 123.501 445.15 124.04C451.727 124.577 456.447 125.642 460.479 127.696C467.723 131.387 473.613 137.277 477.304 144.521C479.358 148.553 480.423 153.273 480.96 159.85C481.499 166.445 481.5 174.774 481.5 186V358.6C481.5 369.546 481.499 377.665 480.974 384.093C480.45 390.504 479.412 395.1 477.413 399.025C473.818 406.081 468.081 411.818 461.025 415.413C457.1 417.412 452.504 418.45 446.093 418.974C439.665 419.499 431.546 419.5 420.6 419.5H91.4C80.4542 419.5 72.3351 419.499 65.907 418.974C59.4965 418.45 54.8999 417.412 50.9754 415.413C43.9193 411.818 38.1825 406.081 34.5873 399.025C32.5876 395.1 31.5501 390.504 31.0264 384.093C30.5012 377.665 30.5 369.546 30.5 358.6V186C30.5 174.774 30.5012 166.445 31.04 159.85C31.5774 153.273 32.6421 148.553 34.6962 144.521C38.3874 137.277 44.2771 131.387 51.5214 127.696C55.5529 125.642 60.2729 124.577 66.8502 124.04C73.4451 123.501 81.7742 123.5 93 123.5Z" fill="url(#paint3_radial_2_47)" fill-opacity="0.55"/>
<path d="M93 123.5H419C430.226 123.5 438.555 123.501 445.15 124.04C451.727 124.577 456.447 125.642 460.479 127.696C467.723 131.387 473.613 137.277 477.304 144.521C479.358 148.553 480.423 153.273 480.96 159.85C481.499 166.445 481.5 174.774 481.5 186V358.6C481.5 369.546 481.499 377.665 480.974 384.093C480.45 390.504 479.412 395.1 477.413 399.025C473.818 406.081 468.081 411.818 461.025 415.413C457.1 417.412 452.504 418.45 446.093 418.974C439.665 419.499 431.546 419.5 420.6 419.5H91.4C80.4542 419.5 72.3351 419.499 65.907 418.974C59.4965 418.45 54.8999 417.412 50.9754 415.413C43.9193 411.818 38.1825 406.081 34.5873 399.025C32.5876 395.1 31.5501 390.504 31.0264 384.093C30.5012 377.665 30.5 369.546 30.5 358.6V186C30.5 174.774 30.5012 166.445 31.04 159.85C31.5774 153.273 32.6421 148.553 34.6962 144.521C38.3874 137.277 44.2771 131.387 51.5214 127.696C55.5529 125.642 60.2729 124.577 66.8502 124.04C73.4451 123.501 81.7742 123.5 93 123.5Z" stroke="url(#paint4_linear_2_47)" stroke-width="3"/>
<mask id="mask1_2_47" style="mask-type:alpha" maskUnits="userSpaceOnUse" x="29" y="122" width="454" height="299">
<path d="M93 123.5H419C430.226 123.5 438.555 123.501 445.15 124.04C451.727 124.577 456.447 125.642 460.479 127.696C467.723 131.387 473.613 137.277 477.304 144.521C479.358 148.553 480.423 153.273 480.96 159.85C481.499 166.445 481.5 174.774 481.5 186V358.6C481.5 369.546 481.499 377.665 480.974 384.093C480.45 390.504 479.412 395.1 477.413 399.025C473.818 406.081 468.081 411.818 461.025 415.413C457.1 417.412 452.504 418.45 446.093 418.974C439.665 419.499 431.546 419.5 420.6 419.5H91.4C80.4542 419.5 72.3351 419.499 65.907 418.974C59.4965 418.45 54.8999 417.412 50.9754 415.413C43.9193 411.818 38.1825 406.081 34.5873 399.025C32.5876 395.1 31.5501 390.504 31.0264 384.093C30.5012 377.665 30.5 369.546 30.5 358.6V186C30.5 174.774 30.5012 166.445 31.04 159.85C31.5774 153.273 32.6421 148.553 34.6962 144.521C38.3874 137.277 44.2771 131.387 51.5214 127.696C55.5529 125.642 60.2729 124.577 66.8502 124.04C73.4451 123.501 81.7742 123.5 93 123.5Z" fill="white"/>
<path d="M93 123.5H419C430.226 123.5 438.555 123.501 445.15 124.04C451.727 124.577 456.447 125.642 460.479 127.696C467.723 131.387 473.613 137.277 477.304 144.521C479.358 148.553 480.423 153.273 480.96 159.85C481.499 166.445 481.5 174.774 481.5 186V358.6C481.5 369.546 481.499 377.665 480.974 384.093C480.45 390.504 479.412 395.1 477.413 399.025C473.818 406.081 468.081 411.818 461.025 415.413C457.1 417.412 452.504 418.45 446.093 418.974C439.665 419.499 431.546 419.5 420.6 419.5H91.4C80.4542 419.5 72.3351 419.499 65.907 418.974C59.4965 418.45 54.8999 417.412 50.9754 415.413C43.9193 411.818 38.1825 406.081 34.5873 399.025C32.5876 395.1 31.5501 390.504 31.0264 384.093C30.5012 377.665 30.5 369.546 30.5 358.6V186C30.5 174.774 30.5012 166.445 31.04 159.85C31.5774 153.273 32.6421 148.553 34.6962 144.521C38.3874 137.277 44.2771 131.387 51.5214 127.696C55.5529 125.642 60.2729 124.577 66.8502 124.04C73.4451 123.501 81.7742 123.5 93 123.5Z" stroke="white" stroke-width="3"/>
</mask>
<g mask="url(#mask1_2_47)">
<g filter="url(#filter2_f_2_47)">
<rect x="24" y="425" width="24" height="464" transform="rotate(-90 24 425)" fill="#6CBAE9"/>
</g>
<g opacity="0.77">
<g filter="url(#filter3_d_2_47)">
<rect x="8" y="401" width="496" height="16" fill="url(#paint5_linear_2_47)"/>
</g>
<g filter="url(#filter4_d_2_47)">
<rect x="8" y="381" width="496" height="16" fill="url(#paint6_linear_2_47)"/>
</g>
<g filter="url(#filter5_d_2_47)">
<rect x="8" y="361" width="496" height="16" fill="url(#paint7_linear_2_47)"/>
</g>
</g>
<g filter="url(#filter6_f_2_47)">
<rect x="24" y="121" width="36" height="308" rx="18" fill="#81C1E8"/>
</g>
<g filter="url(#filter7_f_2_47)">
<rect x="452" y="121" width="36" height="308" rx="18" fill="#81C1E8"/>
</g>
</g>
</g>
</g>
<defs>
<filter id="filter0_d_2_47" x="24" y="45" width="464" height="384" filterUnits="userSpaceOnUse" color-interpolation-filters="sRGB">
<feFlood flood-opacity="0" result="BackgroundImageFix"/>
<feColorMatrix in="SourceAlpha" type="matrix" values="0 0 0 0 0 0 0 0 0 0 0 0 0 0 0 0 0 0 127 0" result="hardAlpha"/>
<feOffset dy="4"/>
<feGaussianBlur stdDeviation="4"/>
<feColorMatrix type="matrix" values="0 0 0 0 0 0 0 0 0 0 0 0 0 0 0 0 0 0 0.245684 0"/>
<feBlend mode="normal" in2="BackgroundImageFix" result="effect1_dropShadow_2_47"/>
<feBlend mode="normal" in="SourceGraphic" in2="effect1_dropShadow_2_47" result="shape"/>
</filter>
<filter id="filter1_df_2_47" x="-11.4925" y="69.5075" width="534.985" height="155.493" filterUnits="userSpaceOnUse" color-interpolation-filters="sRGB">
<feFlood flood-opacity="0" result="BackgroundImageFix"/>
<feColorMatrix in="SourceAlpha" type="matrix" values="0 0 0 0 0 0 0 0 0 0 0 0 0 0 0 0 0 0 127 0" result="hardAlpha"/>
<feOffset dy="16"/>
<feGaussianBlur stdDeviation="16"/>
<feColorMatrix type="matrix" values="0 0 0 0 0.243148 0 0 0 0 0.530446 0 0 0 0 0.784098 0 0 0 1 0"/>
<feBlend mode="normal" in2="BackgroundImageFix" result="effect1_dropShadow_2_47"/>
<feBlend mode="normal" in="SourceGraphic" in2="effect1_dropShadow_2_47" result="shape"/>
<feGaussianBlur stdDeviation="21.7463" result="effect2_foregroundBlur_2_47"/>
</filter>
<filter id="filter2_f_2_47" x="18.0198" y="395.02" width="475.96" height="35.9604" filterUnits="userSpaceOnUse" color-interpolation-filters="sRGB">
<feFlood flood-opacity="0" result="BackgroundImageFix"/>
<feBlend mode="normal" in="SourceGraphic" in2="BackgroundImageFix" result="shape"/>
<feGaussianBlur stdDeviation="2.99011" result="effect1_foregroundBlur_2_47"/>
</filter>
<filter id="filter3_d_2_47" x="8" y="399" width="496" height="18" filterUnits="userSpaceOnUse" color-interpolation-filters="sRGB">
<feFlood flood-opacity="0" result="BackgroundImageFix"/>
<feColorMatrix in="SourceAlpha" type="matrix" values="0 0 0 0 0 0 0 0 0 0 0 0 0 0 0 0 0 0 127 0" result="hardAlpha"/>
<feOffset dy="-2"/>
<feColorMatrix type="matrix" values="0 0 0 0 1 0 0 0 0 1 0 0 0 0 1 0 0 0 0.249536 0"/>
<feBlend mode="normal" in2="BackgroundImageFix" result="effect1_dropShadow_2_47"/>
<feBlend mode="normal" in="SourceGraphic" in2="effect1_dropShadow_2_47" result="shape"/>
</filter>
<filter id="filter4_d_2_47" x="8" y="379" width="496" height="18" filterUnits="userSpaceOnUse" color-interpolation-filters="sRGB">
<feFlood flood-opacity="0" result="BackgroundImageFix"/>
<feColorMatrix in="SourceAlpha" type="matrix" values="0 0 0 0 0 0 0 0 0 0 0 0 0 0 0 0 0 0 127 0" result="hardAlpha"/>
<feOffset dy="-2"/>
<feColorMatrix type="matrix" values="0 0 0 0 1 0 0 0 0 1 0 0 0 0 1 0 0 0 0.249536 0"/>
<feBlend mode="normal" in2="BackgroundImageFix" result="effect1_dropShadow_2_47"/>
<feBlend mode="normal" in="SourceGraphic" in2="effect1_dropShadow_2_47" result="shape"/>
</filter>
<filter id="filter5_d_2_47" x="8" y="359" width="496" height="18" filterUnits="userSpaceOnUse" color-interpolation-filters="sRGB">
<feFlood flood-opacity="0" result="BackgroundImageFix"/>
<feColorMatrix in="SourceAlpha" type="matrix" values="0 0 0 0 0 0 0 0 0 0 0 0 0 0 0 0 0 0 127 0" result="hardAlpha"/>
<feOffset dy="-2"/>
<feColorMatrix type="matrix" values="0 0 0 0 1 0 0 0 0 1 0 0 0 0 1 0 0 0 0.249536 0"/>
<feBlend mode="normal" in2="BackgroundImageFix" result="effect1_dropShadow_2_47"/>
<feBlend mode="normal" in="SourceGraphic" in2="effect1_dropShadow_2_47" result="shape"/>
</filter>
<filter id="filter6_f_2_47" x="-41.2388" y="55.7612" width="166.478" height="438.478" filterUnits="userSpaceOnUse" color-interpolation-filters="sRGB">
<feFlood flood-opacity="0" result="BackgroundImageFix"/>
<feBlend mode="normal" in="SourceGraphic" in2="BackgroundImageFix" result="shape"/>
<feGaussianBlur stdDeviation="32.6194" result="effect1_foregroundBlur_2_47"/>
</filter>
<filter id="filter7_f_2_47" x="386.761" y="55.7612" width="166.478" height="438.478" filterUnits="userSpaceOnUse" color-interpolation-filters="sRGB">
<feFlood flood-opacity="0" result="BackgroundImageFix"/>
<feBlend mode="normal" in="SourceGraphic" in2="BackgroundImageFix" result="shape"/>
<feGaussianBlur stdDeviation="32.6194" result="effect1_foregroundBlur_2_47"/>
</filter>
<linearGradient id="paint0_linear_2_47" x1="212.087" y1="49" x2="212.087" y2="121.143" gradientUnits="userSpaceOnUse">
<stop stop-color="#699CCB"/>
<stop offset="0.10849" stop-color="#689CCB"/>
<stop offset="0.206431" stop-color="#679ACA"/>
<stop offset="0.296168" stop-color="#6598C9"/>
<stop offset="0.380045" stop-color="#6296C8"/>
<stop offset="0.460406" stop-color="#5F93C7"/>
<stop offset="0.539594" stop-color="#5B90C5"/>
<stop offset="0.619955" stop-color="#588EC4"/>
<stop offset="0.703832" stop-color="#548BC3"/>
<stop offset="0.793569" stop-color="#5289C2"/>
<stop offset="0.89151" stop-color="#5088C1"/>
<stop offset="1" stop-color="#4F87C1"/>
</linearGradient>
<linearGradient id="paint1_linear_2_47" x1="210.564" y1="49" x2="210.564" y2="123.645" gradientUnits="userSpaceOnUse">
<stop stop-color="#96D8FF" stop-opacity="0.681818"/>
<stop offset="1" stop-color="#053A59" stop-opacity="0.01"/>
</linearGradient>
<linearGradient id="paint2_linear_2_47" x1="32" y1="113" x2="32" y2="177" gradientUnits="userSpaceOnUse">
<stop offset="0.000158361" stop-color="#1E6293"/>
<stop offset="1" stop-color="#17659D"/>
</linearGradient>
<radialGradient id="paint3_radial_2_47" cx="0" cy="0" r="1" gradientUnits="userSpaceOnUse" gradientTransform="translate(256 190.25) rotate(90) scale(230.75 350.37)">
<stop stop-color="white" stop-opacity="0.278354"/>
<stop offset="1" stop-color="white" stop-opacity="0.01"/>
</radialGradient>
<linearGradient id="paint4_linear_2_47" x1="198.54" y1="122" x2="198.54" y2="197.685" gradientUnits="userSpaceOnUse">
<stop stop-color="#E8F7FF" stop-opacity="0.25112"/>
<stop offset="0.999894" stop-color="#CCECFF" stop-opacity="0.01"/>
</linearGradient>
<linearGradient id="paint5_linear_2_47" x1="504" y1="417" x2="504" y2="401" gradientUnits="userSpaceOnUse">
<stop stop-color="#68B2DE"/>
<stop offset="1" stop-color="#8AD4FF"/>
</linearGradient>
<linearGradient id="paint6_linear_2_47" x1="504" y1="397" x2="504" y2="381" gradientUnits="userSpaceOnUse">
<stop stop-color="#68B2DE"/>
<stop offset="1" stop-color="#8AD4FF"/>
</linearGradient>
<linearGradient id="paint7_linear_2_47" x1="504" y1="377" x2="504" y2="361" gradientUnits="userSpaceOnUse">
<stop stop-color="#68B2DE"/>
<stop offset="1" stop-color="#8AD4FF"/>
</linearGradient>
</defs>
</svg>
