<svg width="128" height="128" viewBox="0 0 128 128" fill="none" xmlns="http://www.w3.org/2000/svg">
<g filter="url(#filter0_d_2_77)">
<path d="M20.8 18.425H41.334C43.6144 18.425 44.6847 18.4274 45.4328 18.5823C45.6107 18.6191 45.7533 18.6478 45.8703 18.6713C46.1854 18.7348 46.3141 18.7607 46.4435 18.8065C46.5728 18.8523 46.6893 18.9131 46.9741 19.0621C47.0799 19.1173 47.2088 19.1847 47.3702 19.268C47.6893 19.4326 48.4085 19.9597 49.6626 20.9476C50.8999 21.9223 52.6207 23.3149 54.9197 25.1754C57.1471 26.9781 60.1415 28.425 64 28.425C66.712 28.425 91.4608 28.2781 107.136 28.1833C109.392 28.1697 111.058 28.16 112.376 28.2601C113.69 28.3598 114.62 28.5666 115.41 28.9652C116.844 29.6883 118.011 30.8482 118.743 32.2779C119.146 33.066 119.359 33.9958 119.467 35.3105C119.575 36.63 119.575 38.2992 119.575 40.559V94C119.575 96.8073 119.575 98.8872 119.44 100.533C119.306 102.175 119.041 103.347 118.531 104.347C117.613 106.149 116.149 107.613 114.347 108.531C113.347 109.041 112.175 109.306 110.533 109.44C108.887 109.575 106.807 109.575 104 109.575H24C21.1927 109.575 19.1128 109.575 17.4666 109.44C15.8254 109.306 14.6527 109.041 13.653 108.531C11.8514 107.613 10.3866 106.149 9.46861 104.347C8.95926 103.347 8.69392 102.175 8.55983 100.533C8.42533 98.8872 8.425 96.8073 8.425 94V30.8C8.425 28.5528 8.42533 26.8929 8.53258 25.5802C8.63943 24.2725 8.85027 23.3468 9.25063 22.561C9.97687 21.1357 11.1357 19.9769 12.561 19.2506C13.3468 18.8503 14.2725 18.6394 15.5802 18.5326C16.8929 18.4253 18.5528 18.425 20.8 18.425Z" fill="url(#paint0_linear_2_77)" stroke="url(#paint1_linear_2_77)" stroke-width="0.85"/>
<mask id="mask0_2_77" style="mask-type:alpha" maskUnits="userSpaceOnUse" x="8" y="18" width="112" height="92">
<path d="M20.8 18.425H41.334C43.6144 18.425 44.6847 18.4274 45.4328 18.5823C45.6107 18.6191 45.7533 18.6478 45.8703 18.6713C46.1854 18.7348 46.3141 18.7607 46.4435 18.8065C46.5728 18.8523 46.6893 18.9131 46.9741 19.0621C47.0799 19.1173 47.2088 19.1847 47.3702 19.268C47.6893 19.4326 48.4085 19.9597 49.6626 20.9476C50.8999 21.9223 52.6207 23.3149 54.9197 25.1754C57.1471 26.9781 60.1415 28.425 64 28.425C66.712 28.425 91.4608 28.2781 107.136 28.1833C109.392 28.1697 111.058 28.16 112.376 28.2601C113.69 28.3598 114.62 28.5666 115.41 28.9652C116.844 29.6883 118.011 30.8482 118.743 32.2779C119.146 33.066 119.359 33.9958 119.467 35.3105C119.575 36.63 119.575 38.2992 119.575 40.559V94C119.575 96.8073 119.575 98.8872 119.44 100.533C119.306 102.175 119.041 103.347 118.531 104.347C117.613 106.149 116.149 107.613 114.347 108.531C113.347 109.041 112.175 109.306 110.533 109.44C108.887 109.575 106.807 109.575 104 109.575H24C21.1927 109.575 19.1128 109.575 17.4666 109.44C15.8254 109.306 14.6527 109.041 13.653 108.531C11.8514 107.613 10.3866 106.149 9.46861 104.347C8.95926 103.347 8.69392 102.175 8.55983 100.533C8.42533 98.8872 8.425 96.8073 8.425 94V30.8C8.425 28.5528 8.42533 26.8929 8.53258 25.5802C8.63943 24.2725 8.85027 23.3468 9.25063 22.561C9.97687 21.1357 11.1357 19.9769 12.561 19.2506C13.3468 18.8503 14.2725 18.6394 15.5802 18.5326C16.8929 18.4253 18.5528 18.425 20.8 18.425Z" fill="white" stroke="white" stroke-width="0.85"/>
</mask>
<g mask="url(#mask0_2_77)">
<g style="mix-blend-mode:darken" filter="url(#filter1_df_2_77)">
<rect x="8" y="34" width="112" height="16" rx="5" fill="url(#paint2_linear_2_77)"/>
</g>
<path d="M23 36.375H105C107.806 36.375 109.889 36.3753 111.537 36.51C113.182 36.6443 114.362 36.9105 115.37 37.4241C117.181 38.3468 118.653 39.8193 119.576 41.6303C120.089 42.6382 120.356 43.8182 120.49 45.4626C120.625 47.1113 120.625 49.1936 120.625 52V95.4C120.625 98.1364 120.625 100.166 120.493 101.773C120.362 103.376 120.103 104.525 119.603 105.506C118.704 107.27 117.27 108.704 115.506 109.603C114.525 110.103 113.376 110.362 111.773 110.493C110.166 110.625 108.136 110.625 105.4 110.625H22.6C19.8636 110.625 17.8338 110.625 16.2268 110.493C14.6241 110.362 13.475 110.103 12.4938 109.603C10.7298 108.704 9.29563 107.27 8.39681 105.506C7.8969 104.525 7.63753 103.376 7.50659 101.773C7.37529 100.166 7.375 98.1364 7.375 95.4V52C7.375 49.1935 7.37529 47.1113 7.51 45.4626C7.64434 43.8182 7.91052 42.6382 8.42406 41.6303C9.34684 39.8193 10.8193 38.3468 12.6303 37.4241C13.6382 36.9105 14.8182 36.6443 16.4626 36.51C18.1113 36.3753 20.1936 36.375 23 36.375Z" fill="#8ACEF6"/>
<path d="M23 36.375H105C107.806 36.375 109.889 36.3753 111.537 36.51C113.182 36.6443 114.362 36.9105 115.37 37.4241C117.181 38.3468 118.653 39.8193 119.576 41.6303C120.089 42.6382 120.356 43.8182 120.49 45.4626C120.625 47.1113 120.625 49.1936 120.625 52V95.4C120.625 98.1364 120.625 100.166 120.493 101.773C120.362 103.376 120.103 104.525 119.603 105.506C118.704 107.27 117.27 108.704 115.506 109.603C114.525 110.103 113.376 110.362 111.773 110.493C110.166 110.625 108.136 110.625 105.4 110.625H22.6C19.8636 110.625 17.8338 110.625 16.2268 110.493C14.6241 110.362 13.475 110.103 12.4938 109.603C10.7298 108.704 9.29563 107.27 8.39681 105.506C7.8969 104.525 7.63753 103.376 7.50659 101.773C7.37529 100.166 7.375 98.1364 7.375 95.4V52C7.375 49.1935 7.37529 47.1113 7.51 45.4626C7.64434 43.8182 7.91052 42.6382 8.42406 41.6303C9.34684 39.8193 10.8193 38.3468 12.6303 37.4241C13.6382 36.9105 14.8182 36.6443 16.4626 36.51C18.1113 36.3753 20.1936 36.375 23 36.375Z" fill="url(#paint3_radial_2_77)" fill-opacity="0.55"/>
<path d="M23 36.375H105C107.806 36.375 109.889 36.3753 111.537 36.51C113.182 36.6443 114.362 36.9105 115.37 37.4241C117.181 38.3468 118.653 39.8193 119.576 41.6303C120.089 42.6382 120.356 43.8182 120.49 45.4626C120.625 47.1113 120.625 49.1936 120.625 52V95.4C120.625 98.1364 120.625 100.166 120.493 101.773C120.362 103.376 120.103 104.525 119.603 105.506C118.704 107.27 117.27 108.704 115.506 109.603C114.525 110.103 113.376 110.362 111.773 110.493C110.166 110.625 108.136 110.625 105.4 110.625H22.6C19.8636 110.625 17.8338 110.625 16.2268 110.493C14.6241 110.362 13.475 110.103 12.4938 109.603C10.7298 108.704 9.29563 107.27 8.39681 105.506C7.8969 104.525 7.63753 103.376 7.50659 101.773C7.37529 100.166 7.375 98.1364 7.375 95.4V52C7.375 49.1935 7.37529 47.1113 7.51 45.4626C7.64434 43.8182 7.91052 42.6382 8.42406 41.6303C9.34684 39.8193 10.8193 38.3468 12.6303 37.4241C13.6382 36.9105 14.8182 36.6443 16.4626 36.51C18.1113 36.3753 20.1936 36.375 23 36.375Z" stroke="url(#paint4_linear_2_77)" stroke-width="0.75"/>
<mask id="mask1_2_77" style="mask-type:alpha" maskUnits="userSpaceOnUse" x="7" y="36" width="114" height="75">
<path d="M23 36.375H105C107.806 36.375 109.889 36.3753 111.537 36.51C113.182 36.6443 114.362 36.9105 115.37 37.4241C117.181 38.3468 118.653 39.8193 119.576 41.6303C120.089 42.6382 120.356 43.8182 120.49 45.4626C120.625 47.1113 120.625 49.1936 120.625 52V95.4C120.625 98.1364 120.625 100.166 120.493 101.773C120.362 103.376 120.103 104.525 119.603 105.506C118.704 107.27 117.27 108.704 115.506 109.603C114.525 110.103 113.376 110.362 111.773 110.493C110.166 110.625 108.136 110.625 105.4 110.625H22.6C19.8636 110.625 17.8338 110.625 16.2268 110.493C14.6241 110.362 13.475 110.103 12.4938 109.603C10.7298 108.704 9.29563 107.27 8.39681 105.506C7.8969 104.525 7.63753 103.376 7.50659 101.773C7.37529 100.166 7.375 98.1364 7.375 95.4V52C7.375 49.1935 7.37529 47.1113 7.51 45.4626C7.64434 43.8182 7.91052 42.6382 8.42406 41.6303C9.34684 39.8193 10.8193 38.3468 12.6303 37.4241C13.6382 36.9105 14.8182 36.6443 16.4626 36.51C18.1113 36.3753 20.1936 36.375 23 36.375Z" fill="white"/>
<path d="M23 36.375H105C107.806 36.375 109.889 36.3753 111.537 36.51C113.182 36.6443 114.362 36.9105 115.37 37.4241C117.181 38.3468 118.653 39.8193 119.576 41.6303C120.089 42.6382 120.356 43.8182 120.49 45.4626C120.625 47.1113 120.625 49.1936 120.625 52V95.4C120.625 98.1364 120.625 100.166 120.493 101.773C120.362 103.376 120.103 104.525 119.603 105.506C118.704 107.27 117.27 108.704 115.506 109.603C114.525 110.103 113.376 110.362 111.773 110.493C110.166 110.625 108.136 110.625 105.4 110.625H22.6C19.8636 110.625 17.8338 110.625 16.2268 110.493C14.6241 110.362 13.475 110.103 12.4938 109.603C10.7298 108.704 9.29563 107.27 8.39681 105.506C7.8969 104.525 7.63753 103.376 7.50659 101.773C7.37529 100.166 7.375 98.1364 7.375 95.4V52C7.375 49.1935 7.37529 47.1113 7.51 45.4626C7.64434 43.8182 7.91052 42.6382 8.42406 41.6303C9.34684 39.8193 10.8193 38.3468 12.6303 37.4241C13.6382 36.9105 14.8182 36.6443 16.4626 36.51C18.1113 36.3753 20.1936 36.375 23 36.375Z" stroke="white" stroke-width="0.75"/>
</mask>
<g mask="url(#mask1_2_77)">
<g filter="url(#filter2_f_2_77)">
<rect x="6" y="112" width="6" height="116" transform="rotate(-90 6 112)" fill="#6CBAE9"/>
</g>
<g opacity="0.77">
<g filter="url(#filter3_d_2_77)">
<rect x="2" y="106" width="124" height="4" fill="url(#paint5_linear_2_77)"/>
</g>
<g filter="url(#filter4_d_2_77)">
<rect x="2" y="101" width="124" height="4" fill="url(#paint6_linear_2_77)"/>
</g>
<g filter="url(#filter5_d_2_77)">
<rect x="2" y="96" width="124" height="4" fill="url(#paint7_linear_2_77)"/>
</g>
</g>
<g filter="url(#filter6_f_2_77)">
<rect x="6" y="36" width="9" height="77" rx="4.5" fill="#73D0FA"/>
</g>
<g filter="url(#filter7_f_2_77)">
<rect x="113" y="36" width="9" height="77" rx="4.5" fill="#73D0FA"/>
</g>
</g>
</g>
</g>
<defs>
<filter id="filter0_d_2_77" x="6" y="17" width="116" height="96" filterUnits="userSpaceOnUse" color-interpolation-filters="sRGB">
<feFlood flood-opacity="0" result="BackgroundImageFix"/>
<feColorMatrix in="SourceAlpha" type="matrix" values="0 0 0 0 0 0 0 0 0 0 0 0 0 0 0 0 0 0 127 0" result="hardAlpha"/>
<feOffset dy="1"/>
<feGaussianBlur stdDeviation="1"/>
<feColorMatrix type="matrix" values="0 0 0 0 0 0 0 0 0 0 0 0 0 0 0 0 0 0 0.245684 0"/>
<feBlend mode="normal" in2="BackgroundImageFix" result="effect1_dropShadow_2_77"/>
<feBlend mode="normal" in="SourceGraphic" in2="effect1_dropShadow_2_77" result="shape"/>
</filter>
<filter id="filter1_df_2_77" x="-2.87313" y="23.1269" width="133.746" height="38.8731" filterUnits="userSpaceOnUse" color-interpolation-filters="sRGB">
<feFlood flood-opacity="0" result="BackgroundImageFix"/>
<feColorMatrix in="SourceAlpha" type="matrix" values="0 0 0 0 0 0 0 0 0 0 0 0 0 0 0 0 0 0 127 0" result="hardAlpha"/>
<feOffset dy="4"/>
<feGaussianBlur stdDeviation="4"/>
<feColorMatrix type="matrix" values="0 0 0 0 0.243148 0 0 0 0 0.530446 0 0 0 0 0.784098 0 0 0 1 0"/>
<feBlend mode="normal" in2="BackgroundImageFix" result="effect1_dropShadow_2_77"/>
<feBlend mode="normal" in="SourceGraphic" in2="effect1_dropShadow_2_77" result="shape"/>
<feGaussianBlur stdDeviation="5.43656" result="effect2_foregroundBlur_2_77"/>
</filter>
<filter id="filter2_f_2_77" x="4.50495" y="104.505" width="118.99" height="8.99011" filterUnits="userSpaceOnUse" color-interpolation-filters="sRGB">
<feFlood flood-opacity="0" result="BackgroundImageFix"/>
<feBlend mode="normal" in="SourceGraphic" in2="BackgroundImageFix" result="shape"/>
<feGaussianBlur stdDeviation="0.747527" result="effect1_foregroundBlur_2_77"/>
</filter>
<filter id="filter3_d_2_77" x="2" y="105.5" width="124" height="4.5" filterUnits="userSpaceOnUse" color-interpolation-filters="sRGB">
<feFlood flood-opacity="0" result="BackgroundImageFix"/>
<feColorMatrix in="SourceAlpha" type="matrix" values="0 0 0 0 0 0 0 0 0 0 0 0 0 0 0 0 0 0 127 0" result="hardAlpha"/>
<feOffset dy="-0.5"/>
<feColorMatrix type="matrix" values="0 0 0 0 1 0 0 0 0 1 0 0 0 0 1 0 0 0 0.249536 0"/>
<feBlend mode="normal" in2="BackgroundImageFix" result="effect1_dropShadow_2_77"/>
<feBlend mode="normal" in="SourceGraphic" in2="effect1_dropShadow_2_77" result="shape"/>
</filter>
<filter id="filter4_d_2_77" x="2" y="100.5" width="124" height="4.5" filterUnits="userSpaceOnUse" color-interpolation-filters="sRGB">
<feFlood flood-opacity="0" result="BackgroundImageFix"/>
<feColorMatrix in="SourceAlpha" type="matrix" values="0 0 0 0 0 0 0 0 0 0 0 0 0 0 0 0 0 0 127 0" result="hardAlpha"/>
<feOffset dy="-0.5"/>
<feColorMatrix type="matrix" values="0 0 0 0 1 0 0 0 0 1 0 0 0 0 1 0 0 0 0.249536 0"/>
<feBlend mode="normal" in2="BackgroundImageFix" result="effect1_dropShadow_2_77"/>
<feBlend mode="normal" in="SourceGraphic" in2="effect1_dropShadow_2_77" result="shape"/>
</filter>
<filter id="filter5_d_2_77" x="2" y="95.5" width="124" height="4.5" filterUnits="userSpaceOnUse" color-interpolation-filters="sRGB">
<feFlood flood-opacity="0" result="BackgroundImageFix"/>
<feColorMatrix in="SourceAlpha" type="matrix" values="0 0 0 0 0 0 0 0 0 0 0 0 0 0 0 0 0 0 127 0" result="hardAlpha"/>
<feOffset dy="-0.5"/>
<feColorMatrix type="matrix" values="0 0 0 0 1 0 0 0 0 1 0 0 0 0 1 0 0 0 0.249536 0"/>
<feBlend mode="normal" in2="BackgroundImageFix" result="effect1_dropShadow_2_77"/>
<feBlend mode="normal" in="SourceGraphic" in2="effect1_dropShadow_2_77" result="shape"/>
</filter>
<filter id="filter6_f_2_77" x="-10.3097" y="19.6903" width="41.6194" height="109.619" filterUnits="userSpaceOnUse" color-interpolation-filters="sRGB">
<feFlood flood-opacity="0" result="BackgroundImageFix"/>
<feBlend mode="normal" in="SourceGraphic" in2="BackgroundImageFix" result="shape"/>
<feGaussianBlur stdDeviation="8.15485" result="effect1_foregroundBlur_2_77"/>
</filter>
<filter id="filter7_f_2_77" x="96.6903" y="19.6903" width="41.6194" height="109.619" filterUnits="userSpaceOnUse" color-interpolation-filters="sRGB">
<feFlood flood-opacity="0" result="BackgroundImageFix"/>
<feBlend mode="normal" in="SourceGraphic" in2="BackgroundImageFix" result="shape"/>
<feGaussianBlur stdDeviation="8.15485" result="effect1_foregroundBlur_2_77"/>
</filter>
<linearGradient id="paint0_linear_2_77" x1="53.0217" y1="18" x2="53.0217" y2="36.0357" gradientUnits="userSpaceOnUse">
<stop stop-color="#699CCB"/>
<stop offset="0.10849" stop-color="#689CCB"/>
<stop offset="0.206431" stop-color="#679ACA"/>
<stop offset="0.296168" stop-color="#6598C9"/>
<stop offset="0.380045" stop-color="#6296C8"/>
<stop offset="0.460406" stop-color="#5F93C7"/>
<stop offset="0.539594" stop-color="#5B90C5"/>
<stop offset="0.619955" stop-color="#588EC4"/>
<stop offset="0.703832" stop-color="#548BC3"/>
<stop offset="0.793569" stop-color="#5289C2"/>
<stop offset="0.89151" stop-color="#5088C1"/>
<stop offset="1" stop-color="#4F87C1"/>
</linearGradient>
<linearGradient id="paint1_linear_2_77" x1="52.6411" y1="18" x2="52.6411" y2="36.6611" gradientUnits="userSpaceOnUse">
<stop stop-color="#96D8FF" stop-opacity="0.681818"/>
<stop offset="1" stop-color="#053A59" stop-opacity="0.01"/>
</linearGradient>
<linearGradient id="paint2_linear_2_77" x1="8" y1="34" x2="8" y2="50" gradientUnits="userSpaceOnUse">
<stop offset="0.000158361" stop-color="#1E6293"/>
<stop offset="1" stop-color="#17659D"/>
</linearGradient>
<radialGradient id="paint3_radial_2_77" cx="0" cy="0" r="1" gradientUnits="userSpaceOnUse" gradientTransform="translate(64 53.1196) rotate(90) scale(57.8804 87.9783)">
<stop stop-color="white" stop-opacity="0.278354"/>
<stop offset="1" stop-color="white" stop-opacity="0.01"/>
</radialGradient>
<linearGradient id="paint4_linear_2_77" x1="49.5717" y1="36" x2="49.5717" y2="54.9846" gradientUnits="userSpaceOnUse">
<stop stop-color="#E8F7FF" stop-opacity="0.25112"/>
<stop offset="0.999894" stop-color="#CCECFF" stop-opacity="0.01"/>
</linearGradient>
<linearGradient id="paint5_linear_2_77" x1="126" y1="110" x2="126" y2="106" gradientUnits="userSpaceOnUse">
<stop stop-color="#68B2DE"/>
<stop offset="1" stop-color="#8AD4FF"/>
</linearGradient>
<linearGradient id="paint6_linear_2_77" x1="126" y1="105" x2="126" y2="101" gradientUnits="userSpaceOnUse">
<stop stop-color="#68B2DE"/>
<stop offset="1" stop-color="#8AD4FF"/>
</linearGradient>
<linearGradient id="paint7_linear_2_77" x1="126" y1="100" x2="126" y2="96" gradientUnits="userSpaceOnUse">
<stop stop-color="#68B2DE"/>
<stop offset="1" stop-color="#8AD4FF"/>
</linearGradient>
</defs>
</svg>
