<svg width="256" height="256" viewBox="0 0 256 256" fill="none" xmlns="http://www.w3.org/2000/svg">
<g filter="url(#filter0_d_2_17)">
<path d="M42.1 36.85H83.168C87.7288 36.85 89.8693 36.8548 91.3656 37.1645C91.7213 37.2381 92.0066 37.2956 92.2405 37.3427C92.8707 37.4695 93.1283 37.5214 93.387 37.613C93.6457 37.7045 93.8785 37.8263 94.4483 38.1241C94.6597 38.2347 94.9176 38.3695 95.2404 38.536C95.8787 38.8653 97.317 39.9193 99.8253 41.8952C102.3 43.8445 105.741 46.6298 110.339 50.3509C114.794 53.9562 120.783 56.85 128.5 56.85C133.924 56.85 183.422 56.5562 214.772 56.3667C219.284 56.3394 222.616 56.32 225.253 56.5202C227.879 56.7196 229.74 57.1332 231.321 57.9305C234.189 59.3766 236.523 61.6964 237.986 64.5558C238.793 66.132 239.218 67.9917 239.433 70.6209C239.649 73.2601 239.65 76.5985 239.65 81.118V188C239.65 193.615 239.649 197.774 239.38 201.067C239.112 204.349 238.581 206.695 237.563 208.694C235.727 212.297 232.797 215.227 229.194 217.063C227.195 218.081 224.849 218.612 221.567 218.88C218.274 219.149 214.115 219.15 208.5 219.15H48.5C42.8854 219.15 38.7257 219.149 35.4333 218.88C32.1508 218.612 29.8054 218.081 27.8061 217.063C24.2028 215.227 21.2732 212.297 19.4372 208.694C18.4185 206.695 17.8878 204.349 17.6197 201.067C17.3507 197.774 17.35 193.615 17.35 188V61.6C17.35 57.1056 17.3507 53.7858 17.5652 51.1604C17.7789 48.545 18.2005 46.6935 19.0013 45.122C20.4537 42.2714 22.7714 39.9537 25.622 38.5013C27.1935 37.7005 29.045 37.2789 31.6604 37.0652C34.2858 36.8507 37.6056 36.85 42.1 36.85Z" fill="url(#paint0_linear_2_17)" stroke="url(#paint1_linear_2_17)" stroke-width="1.7"/>
<mask id="mask0_2_17" style="mask-type:alpha" maskUnits="userSpaceOnUse" x="16" y="36" width="225" height="184">
<path d="M42.1 36.85H83.168C87.7288 36.85 89.8693 36.8548 91.3656 37.1645C91.7213 37.2381 92.0066 37.2956 92.2405 37.3427C92.8707 37.4695 93.1283 37.5214 93.387 37.613C93.6457 37.7045 93.8785 37.8263 94.4483 38.1241C94.6597 38.2347 94.9176 38.3695 95.2404 38.536C95.8787 38.8653 97.317 39.9193 99.8253 41.8952C102.3 43.8445 105.741 46.6298 110.339 50.3509C114.794 53.9562 120.783 56.85 128.5 56.85C133.924 56.85 183.422 56.5562 214.772 56.3667C219.284 56.3394 222.616 56.32 225.253 56.5202C227.879 56.7196 229.74 57.1332 231.321 57.9305C234.189 59.3766 236.523 61.6964 237.986 64.5558C238.793 66.132 239.218 67.9917 239.433 70.6209C239.649 73.2601 239.65 76.5985 239.65 81.118V188C239.65 193.615 239.649 197.774 239.38 201.067C239.112 204.349 238.581 206.695 237.563 208.694C235.727 212.297 232.797 215.227 229.194 217.063C227.195 218.081 224.849 218.612 221.567 218.88C218.274 219.149 214.115 219.15 208.5 219.15H48.5C42.8854 219.15 38.7257 219.149 35.4333 218.88C32.1508 218.612 29.8054 218.081 27.8061 217.063C24.2028 215.227 21.2732 212.297 19.4372 208.694C18.4185 206.695 17.8878 204.349 17.6197 201.067C17.3507 197.774 17.35 193.615 17.35 188V61.6C17.35 57.1056 17.3507 53.7858 17.5652 51.1604C17.7789 48.545 18.2005 46.6935 19.0013 45.122C20.4537 42.2714 22.7714 39.9537 25.622 38.5013C27.1935 37.7005 29.045 37.2789 31.6604 37.0652C34.2858 36.8507 37.6056 36.85 42.1 36.85Z" fill="white" stroke="white" stroke-width="1.7"/>
</mask>
<g mask="url(#mask0_2_17)">
<g style="mix-blend-mode:darken" filter="url(#filter1_df_2_17)">
<rect x="16.5" y="68" width="224" height="32" rx="10" fill="url(#paint2_linear_2_17)"/>
</g>
<path d="M47 73.25H210C215.613 73.25 219.777 73.2506 223.075 73.52C226.364 73.7887 228.724 74.321 230.739 75.3481C234.361 77.1937 237.306 80.1386 239.152 83.7607C240.179 85.7764 240.711 88.1365 240.98 91.4251C241.249 94.7225 241.25 98.8871 241.25 104.5V190.8C241.25 196.273 241.249 200.332 240.987 203.546C240.725 206.752 240.206 209.05 239.206 211.012C237.409 214.54 234.54 217.409 231.012 219.206C229.05 220.206 226.752 220.725 223.546 220.987C220.332 221.249 216.273 221.25 210.8 221.25H46.2C40.7271 221.25 36.6676 221.249 33.4535 220.987C30.2482 220.725 27.95 220.206 25.9877 219.206C22.4596 217.409 19.5913 214.54 17.7936 211.012C16.7938 209.05 16.2751 206.752 16.0132 203.546C15.7506 200.332 15.75 196.273 15.75 190.8V104.5C15.75 98.8871 15.7506 94.7225 16.02 91.4251C16.2887 88.1365 16.821 85.7764 17.8481 83.7607C19.6937 80.1386 22.6386 77.1937 26.2607 75.3481C28.2764 74.321 30.6365 73.7887 33.9251 73.52C37.2225 73.2506 41.3871 73.25 47 73.25Z" fill="#8ACEF6"/>
<path d="M47 73.25H210C215.613 73.25 219.777 73.2506 223.075 73.52C226.364 73.7887 228.724 74.321 230.739 75.3481C234.361 77.1937 237.306 80.1386 239.152 83.7607C240.179 85.7764 240.711 88.1365 240.98 91.4251C241.249 94.7225 241.25 98.8871 241.25 104.5V190.8C241.25 196.273 241.249 200.332 240.987 203.546C240.725 206.752 240.206 209.05 239.206 211.012C237.409 214.54 234.54 217.409 231.012 219.206C229.05 220.206 226.752 220.725 223.546 220.987C220.332 221.249 216.273 221.25 210.8 221.25H46.2C40.7271 221.25 36.6676 221.249 33.4535 220.987C30.2482 220.725 27.95 220.206 25.9877 219.206C22.4596 217.409 19.5913 214.54 17.7936 211.012C16.7938 209.05 16.2751 206.752 16.0132 203.546C15.7506 200.332 15.75 196.273 15.75 190.8V104.5C15.75 98.8871 15.7506 94.7225 16.02 91.4251C16.2887 88.1365 16.821 85.7764 17.8481 83.7607C19.6937 80.1386 22.6386 77.1937 26.2607 75.3481C28.2764 74.321 30.6365 73.7887 33.9251 73.52C37.2225 73.2506 41.3871 73.25 47 73.25Z" fill="url(#paint3_radial_2_17)" fill-opacity="0.55"/>
<path d="M47 73.25H210C215.613 73.25 219.777 73.2506 223.075 73.52C226.364 73.7887 228.724 74.321 230.739 75.3481C234.361 77.1937 237.306 80.1386 239.152 83.7607C240.179 85.7764 240.711 88.1365 240.98 91.4251C241.249 94.7225 241.25 98.8871 241.25 104.5V190.8C241.25 196.273 241.249 200.332 240.987 203.546C240.725 206.752 240.206 209.05 239.206 211.012C237.409 214.54 234.54 217.409 231.012 219.206C229.05 220.206 226.752 220.725 223.546 220.987C220.332 221.249 216.273 221.25 210.8 221.25H46.2C40.7271 221.25 36.6676 221.249 33.4535 220.987C30.2482 220.725 27.95 220.206 25.9877 219.206C22.4596 217.409 19.5913 214.54 17.7936 211.012C16.7938 209.05 16.2751 206.752 16.0132 203.546C15.7506 200.332 15.75 196.273 15.75 190.8V104.5C15.75 98.8871 15.7506 94.7225 16.02 91.4251C16.2887 88.1365 16.821 85.7764 17.8481 83.7607C19.6937 80.1386 22.6386 77.1937 26.2607 75.3481C28.2764 74.321 30.6365 73.7887 33.9251 73.52C37.2225 73.2506 41.3871 73.25 47 73.25Z" stroke="url(#paint4_linear_2_17)" stroke-width="1.5"/>
<mask id="mask1_2_17" style="mask-type:alpha" maskUnits="userSpaceOnUse" x="15" y="72" width="227" height="150">
<path d="M47 73.25H210C215.613 73.25 219.777 73.2506 223.075 73.52C226.364 73.7887 228.724 74.321 230.739 75.3481C234.361 77.1937 237.306 80.1386 239.152 83.7607C240.179 85.7764 240.711 88.1365 240.98 91.4251C241.249 94.7225 241.25 98.8871 241.25 104.5V190.8C241.25 196.273 241.249 200.332 240.987 203.546C240.725 206.752 240.206 209.05 239.206 211.012C237.409 214.54 234.54 217.409 231.012 219.206C229.05 220.206 226.752 220.725 223.546 220.987C220.332 221.249 216.273 221.25 210.8 221.25H46.2C40.7271 221.25 36.6676 221.249 33.4535 220.987C30.2482 220.725 27.95 220.206 25.9877 219.206C22.4596 217.409 19.5913 214.54 17.7936 211.012C16.7938 209.05 16.2751 206.752 16.0132 203.546C15.7506 200.332 15.75 196.273 15.75 190.8V104.5C15.75 98.8871 15.7506 94.7225 16.02 91.4251C16.2887 88.1365 16.821 85.7764 17.8481 83.7607C19.6937 80.1386 22.6386 77.1937 26.2607 75.3481C28.2764 74.321 30.6365 73.7887 33.9251 73.52C37.2225 73.2506 41.3871 73.25 47 73.25Z" fill="white"/>
<path d="M47 73.25H210C215.613 73.25 219.777 73.2506 223.075 73.52C226.364 73.7887 228.724 74.321 230.739 75.3481C234.361 77.1937 237.306 80.1386 239.152 83.7607C240.179 85.7764 240.711 88.1365 240.98 91.4251C241.249 94.7225 241.25 98.8871 241.25 104.5V190.8C241.25 196.273 241.249 200.332 240.987 203.546C240.725 206.752 240.206 209.05 239.206 211.012C237.409 214.54 234.54 217.409 231.012 219.206C229.05 220.206 226.752 220.725 223.546 220.987C220.332 221.249 216.273 221.25 210.8 221.25H46.2C40.7271 221.25 36.6676 221.249 33.4535 220.987C30.2482 220.725 27.95 220.206 25.9877 219.206C22.4596 217.409 19.5913 214.54 17.7936 211.012C16.7938 209.05 16.2751 206.752 16.0132 203.546C15.7506 200.332 15.75 196.273 15.75 190.8V104.5C15.75 98.8871 15.7506 94.7225 16.02 91.4251C16.2887 88.1365 16.821 85.7764 17.8481 83.7607C19.6937 80.1386 22.6386 77.1937 26.2607 75.3481C28.2764 74.321 30.6365 73.7887 33.9251 73.52C37.2225 73.2506 41.3871 73.25 47 73.25Z" stroke="white" stroke-width="1.5"/>
</mask>
<g mask="url(#mask1_2_17)">
<g filter="url(#filter2_f_2_17)">
<rect x="12.5" y="224" width="12" height="232" transform="rotate(-90 12.5 224)" fill="#6CBAE9"/>
</g>
<g opacity="0.77">
<g filter="url(#filter3_d_2_17)">
<rect x="4.5" y="212" width="248" height="8" fill="url(#paint5_linear_2_17)"/>
</g>
<g filter="url(#filter4_d_2_17)">
<rect x="4.5" y="202" width="248" height="8" fill="url(#paint6_linear_2_17)"/>
</g>
<g filter="url(#filter5_d_2_17)">
<rect x="4.5" y="192" width="248" height="8" fill="url(#paint7_linear_2_17)"/>
</g>
</g>
<g filter="url(#filter6_f_2_17)">
<rect x="12.5" y="72" width="18" height="154" rx="9" fill="#73D0FA"/>
</g>
<g filter="url(#filter7_f_2_17)">
<rect x="226.5" y="72" width="18" height="154" rx="9" fill="#73D0FA"/>
</g>
</g>
</g>
</g>
<defs>
<filter id="filter0_d_2_17" x="12.5" y="34" width="232" height="192" filterUnits="userSpaceOnUse" color-interpolation-filters="sRGB">
<feFlood flood-opacity="0" result="BackgroundImageFix"/>
<feColorMatrix in="SourceAlpha" type="matrix" values="0 0 0 0 0 0 0 0 0 0 0 0 0 0 0 0 0 0 127 0" result="hardAlpha"/>
<feOffset dy="2"/>
<feGaussianBlur stdDeviation="2"/>
<feColorMatrix type="matrix" values="0 0 0 0 0 0 0 0 0 0 0 0 0 0 0 0 0 0 0.245684 0"/>
<feBlend mode="normal" in2="BackgroundImageFix" result="effect1_dropShadow_2_17"/>
<feBlend mode="normal" in="SourceGraphic" in2="effect1_dropShadow_2_17" result="shape"/>
</filter>
<filter id="filter1_df_2_17" x="-5.24625" y="46.2537" width="267.493" height="77.7463" filterUnits="userSpaceOnUse" color-interpolation-filters="sRGB">
<feFlood flood-opacity="0" result="BackgroundImageFix"/>
<feColorMatrix in="SourceAlpha" type="matrix" values="0 0 0 0 0 0 0 0 0 0 0 0 0 0 0 0 0 0 127 0" result="hardAlpha"/>
<feOffset dy="8"/>
<feGaussianBlur stdDeviation="8"/>
<feColorMatrix type="matrix" values="0 0 0 0 0.243148 0 0 0 0 0.530446 0 0 0 0 0.784098 0 0 0 1 0"/>
<feBlend mode="normal" in2="BackgroundImageFix" result="effect1_dropShadow_2_17"/>
<feBlend mode="normal" in="SourceGraphic" in2="effect1_dropShadow_2_17" result="shape"/>
<feGaussianBlur stdDeviation="10.8731" result="effect2_foregroundBlur_2_17"/>
</filter>
<filter id="filter2_f_2_17" x="9.50989" y="209.01" width="237.98" height="17.9802" filterUnits="userSpaceOnUse" color-interpolation-filters="sRGB">
<feFlood flood-opacity="0" result="BackgroundImageFix"/>
<feBlend mode="normal" in="SourceGraphic" in2="BackgroundImageFix" result="shape"/>
<feGaussianBlur stdDeviation="1.49505" result="effect1_foregroundBlur_2_17"/>
</filter>
<filter id="filter3_d_2_17" x="4.5" y="211" width="248" height="9" filterUnits="userSpaceOnUse" color-interpolation-filters="sRGB">
<feFlood flood-opacity="0" result="BackgroundImageFix"/>
<feColorMatrix in="SourceAlpha" type="matrix" values="0 0 0 0 0 0 0 0 0 0 0 0 0 0 0 0 0 0 127 0" result="hardAlpha"/>
<feOffset dy="-1"/>
<feColorMatrix type="matrix" values="0 0 0 0 1 0 0 0 0 1 0 0 0 0 1 0 0 0 0.249536 0"/>
<feBlend mode="normal" in2="BackgroundImageFix" result="effect1_dropShadow_2_17"/>
<feBlend mode="normal" in="SourceGraphic" in2="effect1_dropShadow_2_17" result="shape"/>
</filter>
<filter id="filter4_d_2_17" x="4.5" y="201" width="248" height="9" filterUnits="userSpaceOnUse" color-interpolation-filters="sRGB">
<feFlood flood-opacity="0" result="BackgroundImageFix"/>
<feColorMatrix in="SourceAlpha" type="matrix" values="0 0 0 0 0 0 0 0 0 0 0 0 0 0 0 0 0 0 127 0" result="hardAlpha"/>
<feOffset dy="-1"/>
<feColorMatrix type="matrix" values="0 0 0 0 1 0 0 0 0 1 0 0 0 0 1 0 0 0 0.249536 0"/>
<feBlend mode="normal" in2="BackgroundImageFix" result="effect1_dropShadow_2_17"/>
<feBlend mode="normal" in="SourceGraphic" in2="effect1_dropShadow_2_17" result="shape"/>
</filter>
<filter id="filter5_d_2_17" x="4.5" y="191" width="248" height="9" filterUnits="userSpaceOnUse" color-interpolation-filters="sRGB">
<feFlood flood-opacity="0" result="BackgroundImageFix"/>
<feColorMatrix in="SourceAlpha" type="matrix" values="0 0 0 0 0 0 0 0 0 0 0 0 0 0 0 0 0 0 127 0" result="hardAlpha"/>
<feOffset dy="-1"/>
<feColorMatrix type="matrix" values="0 0 0 0 1 0 0 0 0 1 0 0 0 0 1 0 0 0 0.249536 0"/>
<feBlend mode="normal" in2="BackgroundImageFix" result="effect1_dropShadow_2_17"/>
<feBlend mode="normal" in="SourceGraphic" in2="effect1_dropShadow_2_17" result="shape"/>
</filter>
<filter id="filter6_f_2_17" x="-20.1194" y="39.3806" width="83.2388" height="219.239" filterUnits="userSpaceOnUse" color-interpolation-filters="sRGB">
<feFlood flood-opacity="0" result="BackgroundImageFix"/>
<feBlend mode="normal" in="SourceGraphic" in2="BackgroundImageFix" result="shape"/>
<feGaussianBlur stdDeviation="16.3097" result="effect1_foregroundBlur_2_17"/>
</filter>
<filter id="filter7_f_2_17" x="193.881" y="39.3806" width="83.2388" height="219.239" filterUnits="userSpaceOnUse" color-interpolation-filters="sRGB">
<feFlood flood-opacity="0" result="BackgroundImageFix"/>
<feBlend mode="normal" in="SourceGraphic" in2="BackgroundImageFix" result="shape"/>
<feGaussianBlur stdDeviation="16.3097" result="effect1_foregroundBlur_2_17"/>
</filter>
<linearGradient id="paint0_linear_2_17" x1="106.543" y1="36" x2="106.543" y2="72.0714" gradientUnits="userSpaceOnUse">
<stop stop-color="#699CCB"/>
<stop offset="0.10849" stop-color="#689CCB"/>
<stop offset="0.206431" stop-color="#679ACA"/>
<stop offset="0.296168" stop-color="#6598C9"/>
<stop offset="0.380045" stop-color="#6296C8"/>
<stop offset="0.460406" stop-color="#5F93C7"/>
<stop offset="0.539594" stop-color="#5B90C5"/>
<stop offset="0.619955" stop-color="#588EC4"/>
<stop offset="0.703832" stop-color="#548BC3"/>
<stop offset="0.793569" stop-color="#5289C2"/>
<stop offset="0.89151" stop-color="#5088C1"/>
<stop offset="1" stop-color="#4F87C1"/>
</linearGradient>
<linearGradient id="paint1_linear_2_17" x1="105.782" y1="36" x2="105.782" y2="73.3223" gradientUnits="userSpaceOnUse">
<stop stop-color="#96D8FF" stop-opacity="0.681818"/>
<stop offset="1" stop-color="#053A59" stop-opacity="0.01"/>
</linearGradient>
<linearGradient id="paint2_linear_2_17" x1="16.5" y1="68" x2="16.5" y2="100" gradientUnits="userSpaceOnUse">
<stop offset="0.000158361" stop-color="#1E6293"/>
<stop offset="1" stop-color="#17659D"/>
</linearGradient>
<radialGradient id="paint3_radial_2_17" cx="0" cy="0" r="1" gradientUnits="userSpaceOnUse" gradientTransform="translate(128.5 106.625) rotate(90) scale(115.375 175.185)">
<stop stop-color="white" stop-opacity="0.278354"/>
<stop offset="1" stop-color="white" stop-opacity="0.01"/>
</radialGradient>
<linearGradient id="paint4_linear_2_17" x1="99.77" y1="72.5" x2="99.77" y2="110.343" gradientUnits="userSpaceOnUse">
<stop stop-color="#E8F7FF" stop-opacity="0.25112"/>
<stop offset="0.999894" stop-color="#CCECFF" stop-opacity="0.01"/>
</linearGradient>
<linearGradient id="paint5_linear_2_17" x1="252.5" y1="220" x2="252.5" y2="212" gradientUnits="userSpaceOnUse">
<stop stop-color="#68B2DE"/>
<stop offset="1" stop-color="#8AD4FF"/>
</linearGradient>
<linearGradient id="paint6_linear_2_17" x1="252.5" y1="210" x2="252.5" y2="202" gradientUnits="userSpaceOnUse">
<stop stop-color="#68B2DE"/>
<stop offset="1" stop-color="#8AD4FF"/>
</linearGradient>
<linearGradient id="paint7_linear_2_17" x1="252.5" y1="200" x2="252.5" y2="192" gradientUnits="userSpaceOnUse">
<stop stop-color="#68B2DE"/>
<stop offset="1" stop-color="#8AD4FF"/>
</linearGradient>
</defs>
</svg>
