<svg width="1024" height="1024" viewBox="0 0 1024 1024" fill="none" xmlns="http://www.w3.org/2000/svg">
<g filter="url(#filter0_d_2_62)">
<path d="M168.4 147.4H332.672C350.915 147.4 359.477 147.419 365.462 148.658C366.885 148.953 368.026 149.182 368.962 149.371C371.483 149.878 372.513 150.086 373.548 150.452C374.583 150.818 375.514 151.305 377.793 152.496C378.639 152.939 379.67 153.478 380.962 154.144C383.515 155.461 389.268 159.677 399.301 167.581C409.199 175.378 422.966 186.519 441.358 201.404C459.177 215.825 483.132 227.4 514 227.4C535.696 227.4 733.686 226.225 859.089 225.467C877.136 225.358 890.465 225.28 901.011 226.081C911.517 226.878 918.958 228.533 925.283 231.722C936.756 237.506 946.091 246.786 951.945 258.223C955.172 264.528 956.872 271.967 957.733 282.484C958.597 293.04 958.6 306.394 958.6 324.472V752C958.6 774.458 958.597 791.097 957.521 804.267C956.449 817.397 954.326 826.778 950.251 834.776C942.907 849.189 931.189 860.907 916.776 868.251C908.778 872.326 899.397 874.449 886.267 875.521C873.097 876.597 856.458 876.6 834 876.6H194C171.542 876.6 154.903 876.597 141.733 875.521C128.603 874.449 119.222 872.326 111.224 868.251C96.8111 860.907 85.0928 849.189 77.7489 834.776C73.6741 826.778 71.5514 817.397 70.4786 804.267C69.4026 791.097 69.4 774.458 69.4 752V246.4C69.4 228.422 69.4026 215.143 70.2607 204.642C71.1154 194.18 72.8021 186.774 76.005 180.488C81.8149 169.086 91.0856 159.815 102.488 154.005C108.774 150.802 116.18 149.115 126.642 148.261C137.143 147.403 150.422 147.4 168.4 147.4Z" fill="url(#paint0_linear_2_62)" stroke="url(#paint1_linear_2_62)" stroke-width="6.8"/>
<mask id="mask0_2_62" style="mask-type:alpha" maskUnits="userSpaceOnUse" x="66" y="144" width="896" height="736">
<path d="M168.4 147.4H332.672C350.915 147.4 359.477 147.419 365.462 148.658C366.885 148.953 368.026 149.182 368.962 149.371C371.483 149.878 372.513 150.086 373.548 150.452C374.583 150.818 375.514 151.305 377.793 152.496C378.639 152.939 379.67 153.478 380.962 154.144C383.515 155.461 389.268 159.677 399.301 167.581C409.199 175.378 422.966 186.519 441.358 201.404C459.177 215.825 483.132 227.4 514 227.4C535.696 227.4 733.686 226.225 859.089 225.467C877.136 225.358 890.465 225.28 901.011 226.081C911.517 226.878 918.958 228.533 925.283 231.722C936.756 237.506 946.091 246.786 951.945 258.223C955.172 264.528 956.872 271.967 957.733 282.484C958.597 293.04 958.6 306.394 958.6 324.472V752C958.6 774.458 958.597 791.097 957.521 804.267C956.449 817.397 954.326 826.778 950.251 834.776C942.907 849.189 931.189 860.907 916.776 868.251C908.778 872.326 899.397 874.449 886.267 875.521C873.097 876.597 856.458 876.6 834 876.6H194C171.542 876.6 154.903 876.597 141.733 875.521C128.603 874.449 119.222 872.326 111.224 868.251C96.8111 860.907 85.0928 849.189 77.7489 834.776C73.6741 826.778 71.5514 817.397 70.4786 804.267C69.4026 791.097 69.4 774.458 69.4 752V246.4C69.4 228.422 69.4026 215.143 70.2607 204.642C71.1154 194.18 72.8021 186.774 76.005 180.488C81.8149 169.086 91.0856 159.815 102.488 154.005C108.774 150.802 116.18 149.115 126.642 148.261C137.143 147.403 150.422 147.4 168.4 147.4Z" fill="white" stroke="white" stroke-width="6.8"/>
</mask>
<g mask="url(#mask0_2_62)">
<g style="mix-blend-mode:darken" filter="url(#filter1_df_2_62)">
<rect x="66" y="272" width="896" height="128" rx="40" fill="url(#paint2_linear_2_62)"/>
</g>
<path d="M188 293H840C862.452 293 879.11 293.002 892.3 294.08C905.454 295.155 914.894 297.284 922.957 301.392C937.446 308.775 949.225 320.554 956.607 335.043C960.716 343.106 962.845 352.546 963.92 365.7C964.998 378.89 965 395.548 965 418V763.2C965 785.092 964.998 801.33 963.947 814.186C962.9 827.007 960.825 836.2 956.826 844.049C949.635 858.161 938.161 869.635 924.049 876.826C916.2 880.825 907.007 882.9 894.186 883.947C881.33 884.998 865.092 885 843.2 885H184.8C162.908 885 146.67 884.998 133.814 883.947C120.993 882.9 111.8 880.825 103.951 876.826C89.8386 869.635 78.365 858.161 71.1745 844.049C67.1752 836.2 65.1003 827.007 64.0527 814.186C63.0023 801.33 63 785.092 63 763.2V418C63 395.548 63.0023 378.89 64.08 365.7C65.1547 352.546 67.2842 343.106 71.3925 335.043C78.7747 320.554 90.5543 308.775 105.043 301.392C113.106 297.284 122.546 295.155 135.7 294.08C148.89 293.002 165.548 293 188 293Z" fill="#8ACEF6"/>
<path d="M188 293H840C862.452 293 879.11 293.002 892.3 294.08C905.454 295.155 914.894 297.284 922.957 301.392C937.446 308.775 949.225 320.554 956.607 335.043C960.716 343.106 962.845 352.546 963.92 365.7C964.998 378.89 965 395.548 965 418V763.2C965 785.092 964.998 801.33 963.947 814.186C962.9 827.007 960.825 836.2 956.826 844.049C949.635 858.161 938.161 869.635 924.049 876.826C916.2 880.825 907.007 882.9 894.186 883.947C881.33 884.998 865.092 885 843.2 885H184.8C162.908 885 146.67 884.998 133.814 883.947C120.993 882.9 111.8 880.825 103.951 876.826C89.8386 869.635 78.365 858.161 71.1745 844.049C67.1752 836.2 65.1003 827.007 64.0527 814.186C63.0023 801.33 63 785.092 63 763.2V418C63 395.548 63.0023 378.89 64.08 365.7C65.1547 352.546 67.2842 343.106 71.3925 335.043C78.7747 320.554 90.5543 308.775 105.043 301.392C113.106 297.284 122.546 295.155 135.7 294.08C148.89 293.002 165.548 293 188 293Z" fill="url(#paint3_radial_2_62)" fill-opacity="0.55"/>
<path d="M188 293H840C862.452 293 879.11 293.002 892.3 294.08C905.454 295.155 914.894 297.284 922.957 301.392C937.446 308.775 949.225 320.554 956.607 335.043C960.716 343.106 962.845 352.546 963.92 365.7C964.998 378.89 965 395.548 965 418V763.2C965 785.092 964.998 801.33 963.947 814.186C962.9 827.007 960.825 836.2 956.826 844.049C949.635 858.161 938.161 869.635 924.049 876.826C916.2 880.825 907.007 882.9 894.186 883.947C881.33 884.998 865.092 885 843.2 885H184.8C162.908 885 146.67 884.998 133.814 883.947C120.993 882.9 111.8 880.825 103.951 876.826C89.8386 869.635 78.365 858.161 71.1745 844.049C67.1752 836.2 65.1003 827.007 64.0527 814.186C63.0023 801.33 63 785.092 63 763.2V418C63 395.548 63.0023 378.89 64.08 365.7C65.1547 352.546 67.2842 343.106 71.3925 335.043C78.7747 320.554 90.5543 308.775 105.043 301.392C113.106 297.284 122.546 295.155 135.7 294.08C148.89 293.002 165.548 293 188 293Z" stroke="url(#paint4_linear_2_62)" stroke-width="6"/>
<mask id="mask1_2_62" style="mask-type:alpha" maskUnits="userSpaceOnUse" x="60" y="290" width="908" height="598">
<path d="M188 293H840C862.452 293 879.11 293.002 892.3 294.08C905.454 295.155 914.894 297.284 922.957 301.392C937.446 308.775 949.225 320.554 956.607 335.043C960.716 343.106 962.845 352.546 963.92 365.7C964.998 378.89 965 395.548 965 418V763.2C965 785.092 964.998 801.33 963.947 814.186C962.9 827.007 960.825 836.2 956.826 844.049C949.635 858.161 938.161 869.635 924.049 876.826C916.2 880.825 907.007 882.9 894.186 883.947C881.33 884.998 865.092 885 843.2 885H184.8C162.908 885 146.67 884.998 133.814 883.947C120.993 882.9 111.8 880.825 103.951 876.826C89.8386 869.635 78.365 858.161 71.1745 844.049C67.1752 836.2 65.1003 827.007 64.0527 814.186C63.0023 801.33 63 785.092 63 763.2V418C63 395.548 63.0023 378.89 64.08 365.7C65.1547 352.546 67.2842 343.106 71.3925 335.043C78.7747 320.554 90.5543 308.775 105.043 301.392C113.106 297.284 122.546 295.155 135.7 294.08C148.89 293.002 165.548 293 188 293Z" fill="white"/>
<path d="M188 293H840C862.452 293 879.11 293.002 892.3 294.08C905.454 295.155 914.894 297.284 922.957 301.392C937.446 308.775 949.225 320.554 956.607 335.043C960.716 343.106 962.845 352.546 963.92 365.7C964.998 378.89 965 395.548 965 418V763.2C965 785.092 964.998 801.33 963.947 814.186C962.9 827.007 960.825 836.2 956.826 844.049C949.635 858.161 938.161 869.635 924.049 876.826C916.2 880.825 907.007 882.9 894.186 883.947C881.33 884.998 865.092 885 843.2 885H184.8C162.908 885 146.67 884.998 133.814 883.947C120.993 882.9 111.8 880.825 103.951 876.826C89.8386 869.635 78.365 858.161 71.1745 844.049C67.1752 836.2 65.1003 827.007 64.0527 814.186C63.0023 801.33 63 785.092 63 763.2V418C63 395.548 63.0023 378.89 64.08 365.7C65.1547 352.546 67.2842 343.106 71.3925 335.043C78.7747 320.554 90.5543 308.775 105.043 301.392C113.106 297.284 122.546 295.155 135.7 294.08C148.89 293.002 165.548 293 188 293Z" stroke="white" stroke-width="6"/>
</mask>
<g mask="url(#mask1_2_62)">
<g filter="url(#filter2_f_2_62)">
<rect x="50" y="896" width="48" height="928" transform="rotate(-90 50 896)" fill="#6CBAE9"/>
</g>
<g opacity="0.77">
<g filter="url(#filter3_d_2_62)">
<rect x="18" y="848" width="992" height="32" fill="url(#paint5_linear_2_62)"/>
</g>
<g filter="url(#filter4_d_2_62)">
<rect x="18" y="808" width="992" height="32" fill="url(#paint6_linear_2_62)"/>
</g>
<g filter="url(#filter5_d_2_62)">
<rect x="18" y="768" width="992" height="32" fill="url(#paint7_linear_2_62)"/>
</g>
</g>
<g filter="url(#filter6_f_2_62)">
<rect x="50" y="288" width="72" height="616" rx="36" fill="#81C1E8"/>
</g>
<g filter="url(#filter7_f_2_62)">
<rect x="906" y="288" width="72" height="616" rx="36" fill="#81C1E8"/>
</g>
</g>
</g>
</g>
<defs>
<filter id="filter0_d_2_62" x="50" y="136" width="928" height="768" filterUnits="userSpaceOnUse" color-interpolation-filters="sRGB">
<feFlood flood-opacity="0" result="BackgroundImageFix"/>
<feColorMatrix in="SourceAlpha" type="matrix" values="0 0 0 0 0 0 0 0 0 0 0 0 0 0 0 0 0 0 127 0" result="hardAlpha"/>
<feOffset dy="8"/>
<feGaussianBlur stdDeviation="8"/>
<feColorMatrix type="matrix" values="0 0 0 0 0 0 0 0 0 0 0 0 0 0 0 0 0 0 0.245684 0"/>
<feBlend mode="normal" in2="BackgroundImageFix" result="effect1_dropShadow_2_62"/>
<feBlend mode="normal" in="SourceGraphic" in2="effect1_dropShadow_2_62" result="shape"/>
</filter>
<filter id="filter1_df_2_62" x="-20.985" y="185.015" width="1069.97" height="310.985" filterUnits="userSpaceOnUse" color-interpolation-filters="sRGB">
<feFlood flood-opacity="0" result="BackgroundImageFix"/>
<feColorMatrix in="SourceAlpha" type="matrix" values="0 0 0 0 0 0 0 0 0 0 0 0 0 0 0 0 0 0 127 0" result="hardAlpha"/>
<feOffset dy="32"/>
<feGaussianBlur stdDeviation="32"/>
<feColorMatrix type="matrix" values="0 0 0 0 0.243148 0 0 0 0 0.530446 0 0 0 0 0.784098 0 0 0 1 0"/>
<feBlend mode="normal" in2="BackgroundImageFix" result="effect1_dropShadow_2_62"/>
<feBlend mode="normal" in="SourceGraphic" in2="effect1_dropShadow_2_62" result="shape"/>
<feGaussianBlur stdDeviation="43.4925" result="effect2_foregroundBlur_2_62"/>
</filter>
<filter id="filter2_f_2_62" x="38.0396" y="836.04" width="951.921" height="71.9209" filterUnits="userSpaceOnUse" color-interpolation-filters="sRGB">
<feFlood flood-opacity="0" result="BackgroundImageFix"/>
<feBlend mode="normal" in="SourceGraphic" in2="BackgroundImageFix" result="shape"/>
<feGaussianBlur stdDeviation="5.98022" result="effect1_foregroundBlur_2_62"/>
</filter>
<filter id="filter3_d_2_62" x="18" y="844" width="992" height="36" filterUnits="userSpaceOnUse" color-interpolation-filters="sRGB">
<feFlood flood-opacity="0" result="BackgroundImageFix"/>
<feColorMatrix in="SourceAlpha" type="matrix" values="0 0 0 0 0 0 0 0 0 0 0 0 0 0 0 0 0 0 127 0" result="hardAlpha"/>
<feOffset dy="-4"/>
<feColorMatrix type="matrix" values="0 0 0 0 1 0 0 0 0 1 0 0 0 0 1 0 0 0 0.249536 0"/>
<feBlend mode="normal" in2="BackgroundImageFix" result="effect1_dropShadow_2_62"/>
<feBlend mode="normal" in="SourceGraphic" in2="effect1_dropShadow_2_62" result="shape"/>
</filter>
<filter id="filter4_d_2_62" x="18" y="804" width="992" height="36" filterUnits="userSpaceOnUse" color-interpolation-filters="sRGB">
<feFlood flood-opacity="0" result="BackgroundImageFix"/>
<feColorMatrix in="SourceAlpha" type="matrix" values="0 0 0 0 0 0 0 0 0 0 0 0 0 0 0 0 0 0 127 0" result="hardAlpha"/>
<feOffset dy="-4"/>
<feColorMatrix type="matrix" values="0 0 0 0 1 0 0 0 0 1 0 0 0 0 1 0 0 0 0.249536 0"/>
<feBlend mode="normal" in2="BackgroundImageFix" result="effect1_dropShadow_2_62"/>
<feBlend mode="normal" in="SourceGraphic" in2="effect1_dropShadow_2_62" result="shape"/>
</filter>
<filter id="filter5_d_2_62" x="18" y="764" width="992" height="36" filterUnits="userSpaceOnUse" color-interpolation-filters="sRGB">
<feFlood flood-opacity="0" result="BackgroundImageFix"/>
<feColorMatrix in="SourceAlpha" type="matrix" values="0 0 0 0 0 0 0 0 0 0 0 0 0 0 0 0 0 0 127 0" result="hardAlpha"/>
<feOffset dy="-4"/>
<feColorMatrix type="matrix" values="0 0 0 0 1 0 0 0 0 1 0 0 0 0 1 0 0 0 0.249536 0"/>
<feBlend mode="normal" in2="BackgroundImageFix" result="effect1_dropShadow_2_62"/>
<feBlend mode="normal" in="SourceGraphic" in2="effect1_dropShadow_2_62" result="shape"/>
</filter>
<filter id="filter6_f_2_62" x="-80.4775" y="157.522" width="332.955" height="876.955" filterUnits="userSpaceOnUse" color-interpolation-filters="sRGB">
<feFlood flood-opacity="0" result="BackgroundImageFix"/>
<feBlend mode="normal" in="SourceGraphic" in2="BackgroundImageFix" result="shape"/>
<feGaussianBlur stdDeviation="65.2388" result="effect1_foregroundBlur_2_62"/>
</filter>
<filter id="filter7_f_2_62" x="775.522" y="157.522" width="332.955" height="876.955" filterUnits="userSpaceOnUse" color-interpolation-filters="sRGB">
<feFlood flood-opacity="0" result="BackgroundImageFix"/>
<feBlend mode="normal" in="SourceGraphic" in2="BackgroundImageFix" result="shape"/>
<feGaussianBlur stdDeviation="65.2388" result="effect1_foregroundBlur_2_62"/>
</filter>
<linearGradient id="paint0_linear_2_62" x1="426.174" y1="144" x2="426.174" y2="288.286" gradientUnits="userSpaceOnUse">
<stop stop-color="#699CCB"/>
<stop offset="0.10849" stop-color="#689CCB"/>
<stop offset="0.206431" stop-color="#679ACA"/>
<stop offset="0.296168" stop-color="#6598C9"/>
<stop offset="0.380045" stop-color="#6296C8"/>
<stop offset="0.460406" stop-color="#5F93C7"/>
<stop offset="0.539594" stop-color="#5B90C5"/>
<stop offset="0.619955" stop-color="#588EC4"/>
<stop offset="0.703832" stop-color="#548BC3"/>
<stop offset="0.793569" stop-color="#5289C2"/>
<stop offset="0.89151" stop-color="#5088C1"/>
<stop offset="1" stop-color="#4F87C1"/>
</linearGradient>
<linearGradient id="paint1_linear_2_62" x1="423.128" y1="144" x2="423.128" y2="293.289" gradientUnits="userSpaceOnUse">
<stop stop-color="#96D8FF" stop-opacity="0.681818"/>
<stop offset="1" stop-color="#053A59" stop-opacity="0.01"/>
</linearGradient>
<linearGradient id="paint2_linear_2_62" x1="66" y1="272" x2="66" y2="400" gradientUnits="userSpaceOnUse">
<stop offset="0.000158361" stop-color="#1E6293"/>
<stop offset="1" stop-color="#17659D"/>
</linearGradient>
<radialGradient id="paint3_radial_2_62" cx="0" cy="0" r="1" gradientUnits="userSpaceOnUse" gradientTransform="translate(514 426.5) rotate(90) scale(461.5 700.739)">
<stop stop-color="white" stop-opacity="0.278354"/>
<stop offset="1" stop-color="white" stop-opacity="0.01"/>
</radialGradient>
<linearGradient id="paint4_linear_2_62" x1="399.08" y1="290" x2="399.08" y2="441.37" gradientUnits="userSpaceOnUse">
<stop stop-color="#E8F7FF" stop-opacity="0.25112"/>
<stop offset="0.999894" stop-color="#CCECFF" stop-opacity="0.01"/>
</linearGradient>
<linearGradient id="paint5_linear_2_62" x1="1010" y1="880" x2="1010" y2="848" gradientUnits="userSpaceOnUse">
<stop stop-color="#68B2DE"/>
<stop offset="1" stop-color="#8AD4FF"/>
</linearGradient>
<linearGradient id="paint6_linear_2_62" x1="1010" y1="840" x2="1010" y2="808" gradientUnits="userSpaceOnUse">
<stop stop-color="#68B2DE"/>
<stop offset="1" stop-color="#8AD4FF"/>
</linearGradient>
<linearGradient id="paint7_linear_2_62" x1="1010" y1="800" x2="1010" y2="768" gradientUnits="userSpaceOnUse">
<stop stop-color="#68B2DE"/>
<stop offset="1" stop-color="#8AD4FF"/>
</linearGradient>
</defs>
</svg>
